<svg width="38" height="38" viewBox="0 0 38 38" fill="none" xmlns="http://www.w3.org/2000/svg">
<path d="M16.4758 0.0470738C7.39059 0.0470738 0 7.43766 0 16.5229C0 25.6082 7.39059 32.9987 16.4758 32.9987C19.2532 32.9987 21.9835 32.3397 24.2901 31.0687C24.4749 31.2911 24.6797 31.4959 24.9021 31.6807L29.6094 36.3881C30.0441 36.8772 30.5742 37.2723 31.167 37.5491C31.7599 37.8259 32.4031 37.9787 33.0572 37.9979C33.7112 38.0172 34.3623 37.9025 34.9705 37.6611C35.5786 37.4196 36.131 37.0563 36.5937 36.5937C37.0564 36.131 37.4196 35.5786 37.6611 34.9705C37.9025 34.3623 38.0172 33.7112 37.9979 33.0572C37.9787 32.4031 37.8259 31.7599 37.5491 31.167C37.2723 30.5742 36.8772 30.0441 36.3881 29.6094L31.6807 24.9021C31.4514 24.6727 31.199 24.4676 30.9275 24.2901C32.1985 21.9835 32.9988 19.3003 32.9988 16.4758C32.9988 7.39059 25.6082 0 16.5229 0L16.4758 0.0470738ZM16.4758 4.75446C23.0191 4.75446 28.2443 9.97965 28.2443 16.5229C28.2443 19.6298 27.1145 22.5013 25.1374 24.6196C25.0904 24.6667 25.0433 24.7138 24.9962 24.7608C24.7739 24.9456 24.569 25.1504 24.3842 25.3728C22.313 27.2557 19.4886 28.3384 16.4288 28.3384C9.8855 28.3384 4.66031 23.1132 4.66031 16.57C4.66031 10.0267 9.8855 4.80153 16.4288 4.80153L16.4758 4.75446Z" fill="#C22A1E"/>
</svg>
