<svg width="45" height="45" viewBox="0 0 45 45" fill="none" xmlns="http://www.w3.org/2000/svg">
<path d="M42 10.4055C40.5645 11.043 39.0225 11.472 37.404 11.6655C39.057 10.6755 40.3245 9.10801 40.9215 7.23901C39.3765 8.15551 37.6635 8.82151 35.8395 9.18151C34.38 7.62601 32.301 6.65401 30 6.65401C25.581 6.65401 21.999 10.2375 21.999 14.655C21.999 15.282 22.071 15.894 22.206 16.4775C15.5565 16.1445 9.6615 12.9585 5.7135 8.11651C5.0265 9.29851 4.632 10.6725 4.632 12.141C4.632 14.916 6.0435 17.3655 8.19 18.7995C6.879 18.7575 5.6445 18.3975 4.566 17.799C4.566 17.8335 4.566 17.865 4.566 17.8995C4.566 21.777 7.323 25.011 10.9845 25.7445C10.314 25.9275 9.606 26.025 8.8755 26.025C8.361 26.025 7.8585 25.974 7.371 25.8825C8.3895 29.061 11.3445 31.3755 14.8455 31.44C12.108 33.5865 8.658 34.866 4.908 34.866C4.263 34.866 3.6255 34.8285 2.9985 34.7535C6.54 37.023 10.7445 38.3475 15.264 38.3475C29.982 38.3475 38.028 26.1555 38.028 15.582C38.028 15.2355 38.0205 14.8905 38.0055 14.547C39.57 13.4175 40.9275 12.009 42 10.4055Z" fill="white"/>
</svg>
