<svg width="49" height="49" viewBox="0 0 49 49" fill="none" xmlns="http://www.w3.org/2000/svg">
<path d="M12.1096 4.89999L15.0094 15.3731V20.3975H17.5201V15.3731L20.4581 4.89999H17.9284L16.8757 9.66601C16.58 11.0576 16.3912 12.0464 16.3046 12.636H16.2281C16.1056 11.8112 15.9151 10.8147 15.657 9.64687L14.6426 4.89999H12.1096ZM23.3867 8.85253C22.5357 8.85253 21.8485 9.02003 21.3258 9.35976C20.8015 9.69786 20.4177 10.2389 20.171 10.9771C19.926 11.717 19.801 12.6936 19.801 13.912V15.5549C19.801 16.7603 19.9108 17.7279 20.1264 18.4547C20.342 19.1816 20.703 19.7179 21.2142 20.0626C21.7254 20.4072 22.4309 20.5809 23.3292 20.5825C24.2031 20.5825 24.8996 20.4119 25.4092 20.0721C25.9188 19.7324 26.2891 19.2009 26.5161 18.4675C26.7432 17.7341 26.8575 16.7652 26.8575 15.5581V13.912C26.8575 12.6936 26.7401 11.7201 26.5066 10.9867C26.273 10.255 25.9059 9.71396 25.3996 9.36933C24.8949 9.0247 24.2229 8.85253 23.3867 8.85253ZM28.1782 9.07584V17.5328C28.1782 18.5798 28.3581 19.3508 28.7141 19.8424C29.0718 20.3341 29.6248 20.5794 30.3762 20.5794C31.4591 20.5794 32.2728 20.0568 32.8134 19.0098H32.8676L33.091 20.3943H35.0848V9.07584H32.5391V18.0656C32.4411 18.2763 32.2902 18.45 32.0861 18.5855C31.8819 18.7227 31.6702 18.7897 31.448 18.7897C31.1883 18.7897 31.004 18.6799 30.893 18.4643C30.7819 18.2487 30.7271 17.8924 30.7271 17.3861V9.07584H28.1782ZM23.3292 10.6071C23.6853 10.6071 23.9384 10.7961 24.0789 11.1717C24.221 11.5458 24.2895 12.1384 24.2895 12.9518V16.4801C24.2895 17.318 24.2194 17.9197 24.0789 18.2889C23.9384 18.658 23.6869 18.8423 23.3324 18.8439C22.9764 18.8439 22.7279 18.658 22.5923 18.2889C22.4551 17.9197 22.3882 17.3163 22.3882 16.4801V12.9518C22.3882 12.14 22.4614 11.5474 22.6019 11.1717C22.7424 10.7977 22.9846 10.6071 23.3292 10.6071ZM10.6167 22.704C8.36103 22.704 6.53333 24.5317 6.53333 26.7873V39.854C6.53333 42.1096 8.36103 43.9373 10.6167 43.9373H38.3833C40.639 43.9373 42.4667 42.1096 42.4667 39.854V26.7873C42.4667 24.5317 40.639 22.704 38.3833 22.704H10.6167ZM24.5957 26.4587H26.6693V31.4959H26.6852C26.8714 31.1317 27.1366 30.8392 27.4796 30.6154C27.8226 30.3917 28.1944 30.2805 28.5897 30.2805C29.0993 30.2805 29.4969 30.4161 29.786 30.6856C30.0751 30.9551 30.2886 31.394 30.4176 31.9967C30.5467 32.6011 30.6122 33.4375 30.6122 34.5074V36.0163C30.6122 37.4405 30.4416 38.4872 30.0986 39.1585C29.7556 39.8298 29.2177 40.1666 28.4908 40.1666C28.0858 40.1666 27.7171 40.0721 27.3839 39.8859C27.0507 39.6997 26.804 39.4436 26.6374 39.1202H26.5895L26.3726 40.023H24.5957V26.4587ZM11.7332 26.9436H18.1102V28.6758H15.9729V40.023H13.8674V28.6758H11.7332V26.9436ZM34.4914 30.2868C35.228 30.2868 35.7965 30.4193 36.1917 30.6888C36.5854 30.9599 36.8658 31.382 37.0275 31.9521C37.1876 32.5237 37.2668 33.3146 37.2668 34.3223V35.962H33.6684V36.4469C33.6684 37.0611 33.685 37.5196 33.7226 37.8251C33.7602 38.1305 33.8348 38.3561 33.9491 38.495C34.0634 38.6354 34.2402 38.7055 34.4786 38.7055C34.8004 38.7055 35.0213 38.5806 35.1422 38.3323C35.2614 38.084 35.327 37.6664 35.3368 37.085L37.1902 37.1934C37.2 37.2751 37.2062 37.3926 37.2062 37.5379C37.2062 38.4216 36.9655 39.0813 36.482 39.5158C35.9986 39.9535 35.3144 40.173 34.4308 40.173C33.3708 40.173 32.6288 39.8392 32.2009 39.1745C31.773 38.5097 31.5629 37.4797 31.5629 36.0865V34.418C31.5629 32.984 31.7854 31.9373 32.2264 31.2758C32.6674 30.6143 33.4216 30.2868 34.4914 30.2868ZM21.1504 30.4623H23.3037V40.0199H23.2973V40.023H21.613L21.4279 38.8523H21.3801C20.9227 39.7375 20.2371 40.1794 19.3225 40.1794C18.6871 40.1794 18.221 39.9738 17.9188 39.5573C17.6166 39.1424 17.4658 38.4901 17.4658 37.6081V30.4655H19.6223V37.4837C19.6223 37.9084 19.6696 38.2164 19.7627 38.3961C19.8574 38.579 20.0111 38.6672 20.2316 38.6672C20.4178 38.6672 20.5961 38.6109 20.7676 38.495C20.9407 38.3806 21.0655 38.2343 21.1504 38.0579V30.4623ZM34.4467 31.7383C34.2181 31.7383 34.0458 31.8054 33.9363 31.9393C33.8269 32.0749 33.7537 32.2958 33.7194 32.6029C33.6818 32.9083 33.6652 33.3746 33.6652 33.9969V34.6828H35.2379V33.9969C35.2379 33.3828 35.2181 32.9197 35.1773 32.6029C35.1364 32.2844 35.0634 32.0636 34.954 31.9329C34.8445 31.8039 34.677 31.7383 34.4467 31.7383ZM27.6199 31.8085C27.4125 31.8085 27.2189 31.8908 27.0425 32.0574C26.8661 32.224 26.7411 32.4373 26.6693 32.6954V38.1217C26.764 38.2883 26.8859 38.4117 27.0361 38.495C27.1864 38.5766 27.3494 38.6226 27.5274 38.6226C27.7561 38.6226 27.9373 38.5404 28.0729 38.3738C28.2085 38.2072 28.3045 37.9268 28.36 37.5316C28.4172 37.1379 28.4462 36.5908 28.4462 35.895V34.6637C28.4462 33.9156 28.4233 33.3381 28.376 32.9314C28.3302 32.5264 28.2447 32.2368 28.1271 32.0669C28.0079 31.8971 27.8404 31.8085 27.6199 31.8085Z" fill="white"/>
</svg>
